<svg width="1200" height="675" viewBox="0 0 1200 675" fill="none" xmlns="http://www.w3.org/2000/svg">
  <defs>
    <linearGradient id="bg" x1="84" y1="32" x2="1116" y2="643" gradientUnits="userSpaceOnUse">
      <stop stop-color="#0EA5E9"/>
      <stop offset="0.45" stop-color="#8B5CF6"/>
      <stop offset="1" stop-color="#F97316"/>
    </linearGradient>
    <linearGradient id="glass" x1="160" y1="160" x2="1040" y2="515" gradientUnits="userSpaceOnUse">
      <stop stop-color="white" stop-opacity="0.28"/>
      <stop offset="1" stop-color="white" stop-opacity="0.10"/>
    </linearGradient>
  </defs>
  <rect width="1200" height="675" rx="48" fill="url(#bg)"/>
  <circle cx="280" cy="220" r="190" fill="white" fill-opacity="0.10"/>
  <circle cx="920" cy="460" r="240" fill="black" fill-opacity="0.10"/>
  <rect x="130" y="140" width="940" height="395" rx="32" fill="url(#glass)"/>
  <rect x="170" y="190" width="320" height="44" rx="22" fill="black" fill-opacity="0.25"/>
  <rect x="170" y="260" width="520" height="22" rx="11" fill="black" fill-opacity="0.22"/>
  <rect x="170" y="294" width="460" height="22" rx="11" fill="black" fill-opacity="0.18"/>
  <rect x="170" y="328" width="410" height="22" rx="11" fill="black" fill-opacity="0.14"/>
  <rect x="170" y="408" width="240" height="58" rx="18" fill="black" fill-opacity="0.28"/>
  <path d="M335 437L301 417V457L335 437Z" fill="white" fill-opacity="0.92"/>
  <rect x="470" y="408" width="390" height="58" rx="18" fill="white" fill-opacity="0.14"/>
  <rect x="900" y="408" width="130" height="58" rx="18" fill="white" fill-opacity="0.22"/>
</svg>
