<svg width="1200" height="675" viewBox="0 0 1200 675" fill="none" xmlns="http://www.w3.org/2000/svg">
  <defs>
    <linearGradient id="bg" x1="120" y1="60" x2="1080" y2="615" gradientUnits="userSpaceOnUse">
      <stop stop-color="#111827"/>
      <stop offset="0.35" stop-color="#0B1220"/>
      <stop offset="1" stop-color="#030712"/>
    </linearGradient>
    <radialGradient id="glow1" cx="0" cy="0" r="1" gradientUnits="userSpaceOnUse" gradientTransform="translate(340 240) rotate(45) scale(360 260)">
      <stop stop-color="#F472B6" stop-opacity="0.55"/>
      <stop offset="1" stop-color="#F472B6" stop-opacity="0"/>
    </radialGradient>
    <radialGradient id="glow2" cx="0" cy="0" r="1" gradientUnits="userSpaceOnUse" gradientTransform="translate(920 420) rotate(45) scale(420 300)">
      <stop stop-color="#60A5FA" stop-opacity="0.55"/>
      <stop offset="1" stop-color="#60A5FA" stop-opacity="0"/>
    </radialGradient>
  </defs>
  <rect width="1200" height="675" rx="48" fill="url(#bg)"/>
  <rect width="1200" height="675" rx="48" fill="url(#glow1)"/>
  <rect width="1200" height="675" rx="48" fill="url(#glow2)"/>
  <rect x="150" y="140" width="900" height="395" rx="32" fill="white" fill-opacity="0.06" stroke="white" stroke-opacity="0.10"/>
  <rect x="200" y="190" width="380" height="44" rx="22" fill="white" fill-opacity="0.10"/>
  <rect x="200" y="260" width="540" height="22" rx="11" fill="white" fill-opacity="0.09"/>
  <rect x="200" y="294" width="480" height="22" rx="11" fill="white" fill-opacity="0.07"/>
  <rect x="200" y="328" width="420" height="22" rx="11" fill="white" fill-opacity="0.06"/>
  <rect x="200" y="410" width="240" height="58" rx="18" fill="#F472B6" fill-opacity="0.22" stroke="#F472B6" stroke-opacity="0.35"/>
  <rect x="470" y="410" width="420" height="58" rx="18" fill="#60A5FA" fill-opacity="0.18" stroke="#60A5FA" stroke-opacity="0.30"/>
  <rect x="910" y="410" width="140" height="58" rx="18" fill="white" fill-opacity="0.08" stroke="white" stroke-opacity="0.12"/>
</svg>
